<?xml version="1.0" encoding="utf-8"?>
<!-- Generator: Adobe Illustrator 25.2.0, SVG Export Plug-In . SVG Version: 6.00 Build 0)  -->
<svg version="1.1" id="レイヤー_1" xmlns="http://www.w3.org/2000/svg" xmlns:xlink="http://www.w3.org/1999/xlink" x="0px"
	 y="0px" viewBox="0 0 48.5 48.5" style="enable-background:new 0 0 48.5 48.5;" xml:space="preserve">
<style type="text/css">
	.st0{opacity:0.4;fill:#FFFFFF;stroke:#FFFFFF;stroke-width:0.25;stroke-miterlimit:10;}
	.st1{fill:#FFFFFF;enable-background:new    ;}
</style>
<path class="st0" d="M24.3,48C11.2,48,0.5,37.4,0.5,24.3c0-13.1,10.7-23.8,23.8-23.8S48,11.2,48,24.3C48,37.4,37.4,48,24.3,48z
	 M24.3,1C11.4,1,1,11.4,1,24.3c0,12.8,10.4,23.3,23.3,23.3s23.3-10.4,23.3-23.3C47.5,11.4,37.1,1,24.3,1z"/>
<path class="st1" d="M16.5,31l11.7-11.7c-1.1-0.1-2.5-0.5-4.2-1.1l1-1c2.5,0.2,4.7-0.1,6.6-0.7l0.4,0.4c-0.6,1.9-0.8,4.1-0.7,6.6
	l-1,1c-0.6-1.7-0.9-3.2-1-4.2L17.6,32.1L16.5,31z"/>
</svg>
