<?xml version="1.0" encoding="utf-8"?>
<!-- Generator: Adobe Illustrator 25.2.0, SVG Export Plug-In . SVG Version: 6.00 Build 0)  -->
<svg version="1.1" id="レイヤー_1" xmlns="http://www.w3.org/2000/svg" xmlns:xlink="http://www.w3.org/1999/xlink" x="0px"
	 y="0px" viewBox="0 0 77.6 77" style="enable-background:new 0 0 77.6 77;" xml:space="preserve">
<style type="text/css">
	.st0{fill:#FFFFFF;}
</style>
<g id="レイヤー_2_1_">
	<g id="レイヤー_1-2">
		<path class="st0" d="M21.1,14.3c-0.8,0.6-1.7,1-2.7,1.1L17,13.6l0.1-0.1c1,1.1,2.2,1.9,3.9,0.7c1.5-1.1,0.5-2.9-1.2-2.8l-2.4,0.1
			c-1.4,0.1-2.9-0.2-3-1.9c0-0.9,0.5-1.6,1.3-2.1c0.7-0.6,1.6-1,2.5-1.2L19.4,8l-0.1,0.1C18.6,7,17.1,6.7,16,7.5
			c-0.1,0.1-0.2,0.1-0.3,0.2c-1,0.8-0.9,2.7,1.3,2.6l2.4-0.1c1.9-0.1,2.9,0.8,3,2C22.4,12.1,22.6,13.2,21.1,14.3z"/>
		<path class="st0" d="M29.2,7.2l0.9,1.6c-0.6,0.9-1.4,1.5-2.4,1.8c-2,1-4.4,0.1-5.3-1.9c-0.1-0.2-0.1-0.3-0.2-0.5
			c-1-2-0.3-4.4,1.7-5.4c0.1-0.1,0.3-0.1,0.5-0.2c0.9-0.5,1.9-0.7,3-0.5L27.8,4h-0.1c-0.6-1.3-2.1-1.8-3.3-1.2
			c-1.1,0.5-2.2,1.5-0.8,4.9s2.9,3.3,4,2.8c1.3-0.5,1.9-2,1.4-3.2L29.2,7.2z"/>
		<path class="st0" d="M37.9,8.2L37,8.3c-1.5,0.2-1.3,0.2-2.4-2.3c-0.3-0.8-1.2-1.2-2-1L32,5.2l0.4,2.6c0.1,0.8,0.4,1,0.9,1v0.1
			l-2.7,0.4V9.2c0.5-0.1,0.7-0.4,0.5-1.3L30.2,2c-0.1-0.7-0.4-0.9-0.9-0.8V1l2.2-0.4c2.4-0.4,3.7-0.3,4,1.7c0.3,1.6-0.6,2.2-1.9,2.5
			c0.8-0.1,1.6-0.1,2.6,2.4C36.4,7.8,37,8.1,37.6,8L37.9,8.2z M31.7,0.7l-0.4,0.1L32,5h0.3c1.3-0.2,2.4-0.4,2-2.5S32.9,0.5,31.7,0.7
			z"/>
		<path class="st0" d="M41.8,8.6c-2.6-0.3-3.7-2.3-3.4-4.6s1.7-4.2,4.3-4s3.7,2.4,3.4,4.8S44.5,8.9,41.8,8.6z M42.7,0.2
			c-1.4-0.1-2.6,0.7-2.9,4s0.7,4.2,2.1,4.3s2.6-0.6,2.9-3.8S44.1,0.3,42.7,0.2z"/>
		<path class="st0" d="M53,8.8l-1,2.4l-5.6-2.1L46.5,9c0.5,0.2,0.8-0.2,1.1-1l2-5.5c0.2-0.7,0.1-1-0.4-1.2l0.1-0.1l2.7,1v0.1
			c-0.6-0.1-1-0.1-1.3,0.7l-2.4,6.7l0.4,0.1c1.2,0.5,3.1,1.1,4.2-1.1L53,8.8z"/>
		<path class="st0" d="M59.3,12.8L57.8,15l-5-3.3l0.1-0.1c0.4,0.3,0.8,0,1.2-0.7L57.4,6c0.4-0.6,0.4-1-0.1-1.3l0.1-0.1l2.4,1.6
			l-0.1,0.1C59.3,6,58.9,6,58.4,6.7l-3.9,5.8l0.4,0.2c1.1,0.7,2.8,1.8,4.3-0.1L59.3,12.8z"/>
		<path class="st0" d="M62.1,19.4l-1.5-2l0.1-0.1c0.3,0.4,0.9,0.4,1.5-0.1l4.5-3.4c0.6-0.4,0.8-1,0.5-1.4l0.1-0.1l1.6,2.1
			c1.4,1.9,2.3,4.2-0.5,6.4S63.6,21.3,62.1,19.4z M68.7,14.4L68.4,14l-6.5,4.9l0.3,0.4c0.8,1,2,2.6,5.2,0.2S69.5,15.4,68.7,14.4
			L68.7,14.4z"/>
		<path class="st0" d="M66.7,27.5c-1-2.5,0.3-4.3,2.6-5.2s4.6-0.4,5.5,2s-0.4,4.4-2.7,5.2S67.7,29.9,66.7,27.5z M74.6,24.3
			c-0.5-1.3-1.8-2-4.9-0.8s-3.4,2.5-2.9,3.9s1.7,2,4.8,0.8S75.2,25.7,74.6,24.3z"/>
		<path class="st0" d="M77.6,43.1h-0.2c0-0.9-0.3-1.2-3-2.1L69,39.2V39l5.3-2.2l-5.4-1.6V35l7.2-3.1c0.8-0.4,0.9-0.8,0.9-1.2h0.2
			l0.1,3.2h-0.2c0-1.1-1-0.7-1.1-0.7l-5.5,2.3l4,1.2l1.8-0.7c0.8-0.4,0.9-0.8,0.9-1.2h0.2l0.1,3.2h-0.2c0-1.1-1-0.7-1.1-0.7
			l-5.6,2.2l3.9,1.2c1.2,0.3,2.9,0.9,2.8-0.8h0.2L77.6,43.1z"/>
		<path class="st0" d="M74.2,54.5H74c0.5-1.7-1.1-2.2-2.2-2.5l-5.2-1.7l0.1-0.4l7.8-2.9l-3.3-1c-1-0.3-2.7-0.9-3.2,0.6h-0.2l1.1-3.3
			H69c-0.5,1.7,1.2,2.2,2.2,2.5l3.6,1.2l0.8-0.3c1.1-0.4,1.2-0.8,1.3-1.1H77l-0.7,2.1l-8,2.9l3.5,1.1c1.1,0.3,2.7,0.9,3.2-0.6h0.1
			L74.2,54.5z"/>
		<path class="st0" d="M66.3,56.4l0.7,0.5l-2.2,3L64,59.4L66.3,56.4z"/>
		<path class="st0" d="M57,62.3c0.8-0.7,1.7-1.1,2.7-1.2l1.4,1.8L61,63c-1-1.1-2.2-1.8-3.9-0.6c-1.5,1.1-0.4,2.9,1.3,2.8l2.4-0.2
			c1.4-0.1,2.9,0.1,3,1.8c0,0.9-0.5,1.7-1.2,2.1c-0.7,0.6-1.6,1-2.5,1.2l-1.2-1.6l0.1-0.1c0.7,1.1,2.2,1.3,3.2,0.6
			c0.1-0.1,0.2-0.1,0.3-0.2c1-0.8,0.8-2.7-1.4-2.5l-2.4,0.2c-1.9,0.1-2.9-0.8-3-1.9C55.8,64.5,55.6,63.4,57,62.3z"/>
		<path class="st0" d="M49.1,69.6L48.2,68c0.5-0.9,1.4-1.5,2.3-1.9c2.2-0.8,4.7,0.4,5.5,2.6c0.7,2-0.1,4.2-2,5.3
			c-0.9,0.5-1.9,0.7-2.9,0.5l-0.6-1.8l0.1-0.1c0.6,1.2,2.1,1.7,3.3,1.1c1.1-0.5,2.2-1.6,0.7-4.9s-3-3.2-4.1-2.7
			c-1.3,0.5-1.9,2-1.4,3.3V69.6z"/>
		<path class="st0" d="M40.4,68.8l0.9-0.2c1.5-0.3,1.3-0.2,2.5,2.2c0.4,0.7,1.2,1.1,2,0.9l0.6-0.1L45.9,69c-0.1-0.8-0.5-1-1-0.9V68
			l2.6-0.5v0.2C47,67.7,46.8,68,47,69l1,5.9c0.1,0.7,0.4,0.9,0.9,0.8v0.2l-2.3,0.4c-2.3,0.4-3.7,0.4-4-1.6c-0.3-1.6,0.5-2.2,1.8-2.6
			c-0.8,0.1-1.6,0.2-2.7-2.3c-0.2-0.6-0.8-0.9-1.5-0.8L40.4,68.8z M46.8,76.1l0.4-0.1l-0.7-4.2H46c-1.3,0.2-2.3,0.4-2,2.5
			S45.5,76.3,46.8,76.1z"/>
		<path class="st0" d="M36.4,68.3c2.6,0.2,3.7,2.2,3.5,4.6s-1.6,4.3-4.2,4.1s-3.7-2.3-3.5-4.7S33.8,68.1,36.4,68.3z M35.7,76.8
			c1.4,0.1,2.6-0.7,2.8-4s-0.8-4.2-2.2-4.3s-2.6,0.6-2.8,3.9S34.3,76.7,35.7,76.8z"/>
		<path class="st0" d="M25.3,68.4l0.9-2.5l5.7,2v0.2c-0.5-0.2-0.8,0.2-1,1L29,74.6c-0.2,0.7-0.1,1,0.4,1.2v0.1l-2.8-1v-0.2
			c0.5,0.2,0.9,0.1,1.2-0.7l2.3-6.7l-0.4-0.1c-1.2-0.4-3.1-1.1-4.1,1.2H25.3z"/>
		<path class="st0" d="M18.9,64.6l1.4-2.2l5.1,3.2l-0.1,0.1c-0.4-0.3-0.8,0-1.2,0.7l-3.1,5c-0.4,0.6-0.3,1,0.1,1.2L21,72.7l-2.4-1.6
			l0.1-0.1c0.4,0.3,0.9,0.3,1.3-0.4l3.8-6l-0.4-0.2c-1.1-0.7-2.8-1.8-4.3,0.2H18.9z"/>
		<path class="st0" d="M15.9,58l1.6,2l-0.1,0.1c-0.3-0.4-0.9-0.4-1.5,0.2l-4.4,3.5c-0.6,0.5-0.8,1-0.5,1.4l-0.1,0.1l-1.6-2
			c-1.5-1.9-2.4-4.2,0.4-6.4S14.4,56.1,15.9,58z M9.4,63.2l0.3,0.4l6.4-5l-0.3-0.4c-0.8-1-2.1-2.6-5.2-0.1S8.6,62.1,9.4,63.2z"/>
		<path class="st0" d="M11.2,50c1,2.4-0.2,4.3-2.4,5.2s-4.5,0.5-5.6-1.9s0.3-4.4,2.6-5.3S10.1,47.6,11.2,50z M3.3,53.3
			c0.5,1.3,1.8,2,4.9,0.7s3.4-2.6,2.8-3.9s-1.7-2-4.8-0.7S2.8,52,3.3,53.3z"/>
		<path class="st0" d="M0,34.6h0.2c0,0.9,0.4,1.2,3,2l5.5,1.7v0.2l-5.2,2.3l5.4,1.5v0.2l-7.2,3.2c-0.8,0.4-0.9,0.8-0.9,1.2H0.7
			l-0.2-3.2h0.2c0,0.4,0.3,0.7,0.6,0.8c0.1,0,0.3,0,0.4-0.1L7.2,42l-4-1.1l-1.8,0.7c-0.8,0.4-0.9,0.8-0.9,1.2l0,0l-0.2-3.2h0.2
			c0.1,1.1,1,0.7,1.1,0.7L7.1,38l-3.9-1.2c-1.2-0.3-3-0.8-2.9,0.9H0.2L0,34.6z"/>
		<path class="st0" d="M3.2,23.2L3.2,23.2c-0.4,1.7,1.3,2.1,2.3,2.4l5.2,1.5l-0.1,0.4l-7.8,3l3.4,1c1,0.3,2.7,0.8,3.2-0.7h0.1
			l-1,3.3H8.4c0.5-1.7-1.2-2.2-2.2-2.5l-3.6-1L2,31c-1.2,0.5-1.2,0.8-1.3,1.1H0.5L1.2,30l7.9-3.1l-3.6-1.1c-1.1-0.3-2.7-0.8-3.2,0.7
			H2.2L3.2,23.2z"/>
		<path class="st0" d="M11,21.1l-0.7-0.5l2.2-3.1l0.7,0.5L11,21.1z"/>
	</g>
</g>
<g id="レイヤー_2_2_">
	<g id="レイヤー_1-2_1_">
		<path class="st0" d="M21.1,14.3c-0.8,0.6-1.7,1-2.7,1.1L17,13.6l0.1-0.1c1,1.1,2.2,1.9,3.9,0.7c1.5-1.1,0.5-2.9-1.2-2.8l-2.4,0.1
			c-1.4,0.1-2.9-0.2-3-1.9c0-0.9,0.5-1.6,1.3-2.1c0.7-0.6,1.6-1,2.5-1.2L19.4,8l-0.1,0.1C18.6,7,17.1,6.7,16,7.5
			c-0.1,0.1-0.2,0.1-0.3,0.2c-1,0.8-0.9,2.7,1.3,2.6l2.4-0.1c1.9-0.1,2.9,0.8,3,2C22.4,12.1,22.6,13.2,21.1,14.3z"/>
		<path class="st0" d="M29.2,7.2l0.9,1.6c-0.6,0.9-1.4,1.5-2.4,1.8c-2,1-4.4,0.1-5.3-1.9c-0.1-0.2-0.1-0.3-0.2-0.5
			c-1-2-0.3-4.4,1.7-5.4c0.1-0.1,0.3-0.1,0.5-0.2c0.9-0.5,1.9-0.7,3-0.5L27.8,4h-0.1c-0.6-1.3-2.1-1.8-3.3-1.2
			c-1.1,0.5-2.2,1.5-0.8,4.9s2.9,3.3,4,2.8c1.3-0.5,1.9-2,1.4-3.2L29.2,7.2z"/>
		<path class="st0" d="M37.9,8.2L37,8.3c-1.5,0.2-1.3,0.2-2.4-2.3c-0.3-0.8-1.2-1.2-2-1L32,5.2l0.4,2.6c0.1,0.8,0.4,1,0.9,1v0.1
			l-2.7,0.4V9.2c0.5-0.1,0.7-0.4,0.5-1.3L30.2,2c-0.1-0.7-0.4-0.9-0.9-0.8V1l2.2-0.4c2.4-0.4,3.7-0.3,4,1.7c0.3,1.6-0.6,2.2-1.9,2.5
			c0.8-0.1,1.6-0.1,2.6,2.4C36.4,7.8,37,8.1,37.6,8L37.9,8.2z M31.7,0.7l-0.4,0.1L32,5h0.3c1.3-0.2,2.4-0.4,2-2.5S32.9,0.5,31.7,0.7
			z"/>
		<path class="st0" d="M41.8,8.6c-2.6-0.3-3.7-2.3-3.4-4.6s1.7-4.2,4.3-4s3.7,2.4,3.4,4.8S44.5,8.9,41.8,8.6z M42.7,0.2
			c-1.4-0.1-2.6,0.7-2.9,4s0.7,4.2,2.1,4.3s2.6-0.6,2.9-3.8S44.1,0.3,42.7,0.2z"/>
		<path class="st0" d="M53,8.8l-1,2.4l-5.6-2.1L46.5,9c0.5,0.2,0.8-0.2,1.1-1l2-5.5c0.2-0.7,0.1-1-0.4-1.2l0.1-0.1l2.7,1v0.1
			c-0.6-0.1-1-0.1-1.3,0.7l-2.4,6.7l0.4,0.1c1.2,0.5,3.1,1.1,4.2-1.1L53,8.8z"/>
		<path class="st0" d="M59.3,12.8L57.8,15l-5-3.3l0.1-0.1c0.4,0.3,0.8,0,1.2-0.7L57.4,6c0.4-0.6,0.4-1-0.1-1.3l0.1-0.1l2.4,1.6
			l-0.1,0.1C59.3,6,58.9,6,58.4,6.7l-3.9,5.8l0.4,0.2c1.1,0.7,2.8,1.8,4.3-0.1L59.3,12.8z"/>
		<path class="st0" d="M62.1,19.4l-1.5-2l0.1-0.1c0.3,0.4,0.9,0.4,1.5-0.1l4.5-3.4c0.6-0.4,0.8-1,0.5-1.4l0.1-0.1l1.6,2.1
			c1.4,1.9,2.3,4.2-0.5,6.4S63.6,21.3,62.1,19.4z M68.7,14.4L68.4,14l-6.5,4.9l0.3,0.4c0.8,1,2,2.6,5.2,0.2
			C70.6,17.1,69.5,15.4,68.7,14.4L68.7,14.4z"/>
		<path class="st0" d="M66.7,27.5c-1-2.5,0.3-4.3,2.6-5.2c2.3-0.9,4.6-0.4,5.5,2s-0.4,4.4-2.7,5.2C69.8,30.3,67.7,29.9,66.7,27.5z
			 M74.6,24.3c-0.5-1.3-1.8-2-4.9-0.8s-3.4,2.5-2.9,3.9s1.7,2,4.8,0.8C74.7,27,75.2,25.7,74.6,24.3z"/>
		<path class="st0" d="M77.6,43.1h-0.2c0-0.9-0.3-1.2-3-2.1L69,39.2V39l5.3-2.2l-5.4-1.6V35l7.2-3.1c0.8-0.4,0.9-0.8,0.9-1.2h0.2
			l0.1,3.2h-0.2c0-1.1-1-0.7-1.1-0.7l-5.5,2.3l4,1.2l1.8-0.7c0.8-0.4,0.9-0.8,0.9-1.2h0.2l0.1,3.2h-0.2c0-1.1-1-0.7-1.1-0.7
			l-5.6,2.2l3.9,1.2c1.2,0.3,2.9,0.9,2.8-0.8h0.2L77.6,43.1z"/>
		<path class="st0" d="M74.2,54.5H74c0.5-1.7-1.1-2.2-2.2-2.5l-5.2-1.7l0.1-0.4l7.8-2.9l-3.3-1c-1-0.3-2.7-0.9-3.2,0.6h-0.2l1.1-3.3
			H69c-0.5,1.7,1.2,2.2,2.2,2.5l3.6,1.2l0.8-0.3c1.1-0.4,1.2-0.8,1.3-1.1H77l-0.7,2.1l-8,2.9l3.5,1.1c1.1,0.3,2.7,0.9,3.2-0.6h0.1
			L74.2,54.5z"/>
		<path class="st0" d="M66.3,56.4l0.7,0.5l-2.2,3L64,59.4L66.3,56.4z"/>
		<path class="st0" d="M57,62.3c0.8-0.7,1.7-1.1,2.7-1.2l1.4,1.8L61,63C60,61.9,58.8,61.2,57,62.3c-1.4,1.2-0.3,3,1.4,2.9l2.4-0.2
			c1.4-0.1,2.9,0.1,3,1.8c0,0.9-0.5,1.7-1.2,2.1c-0.7,0.6-1.6,1-2.5,1.2l-1.2-1.6l0.1-0.1c0.7,1.1,2.2,1.3,3.2,0.6
			c0.1-0.1,0.2-0.1,0.3-0.2c1-0.8,0.8-2.7-1.4-2.5l-2.4,0.2c-1.9,0.1-2.9-0.8-3-1.9C55.8,64.5,55.6,63.4,57,62.3z"/>
		<path class="st0" d="M49.1,69.6L48.2,68c0.5-0.9,1.4-1.5,2.3-1.9c2.2-0.8,4.7,0.4,5.5,2.6c0.7,2-0.1,4.2-2,5.3
			c-0.9,0.5-1.9,0.7-2.9,0.5l-0.6-1.8l0.1-0.1c0.6,1.2,2.1,1.7,3.3,1.1c1.1-0.5,2.2-1.6,0.7-4.9s-3-3.2-4.1-2.7
			c-1.3,0.5-1.9,2-1.4,3.3V69.6z"/>
		<path class="st0" d="M40.4,68.8l0.9-0.2c1.5-0.3,1.3-0.2,2.5,2.2c0.4,0.7,1.2,1.1,2,0.9l0.6-0.1L45.9,69c-0.1-0.8-0.5-1-1-0.9V68
			l2.6-0.5v0.2C47,67.7,46.8,68,47,69l1,5.9c0.1,0.7,0.4,0.9,0.9,0.8v0.2l-2.3,0.4c-2.3,0.4-3.7,0.4-4-1.6c-0.3-1.6,0.5-2.2,1.8-2.6
			c-0.8,0.1-1.6,0.2-2.7-2.3c-0.2-0.6-0.8-0.9-1.5-0.8L40.4,68.8z M46.8,76.1l0.4-0.1l-0.7-4.2H46c-1.3,0.2-2.3,0.4-2,2.5
			S45.5,76.3,46.8,76.1z"/>
		<path class="st0" d="M36.4,68.3c2.6,0.2,3.7,2.2,3.5,4.6s-1.6,4.3-4.2,4.1s-3.7-2.3-3.5-4.7S33.8,68.1,36.4,68.3z M35.7,76.8
			c1.4,0.1,2.6-0.7,2.8-4s-0.8-4.2-2.2-4.3s-2.6,0.6-2.8,3.9S34.3,76.7,35.7,76.8z"/>
		<path class="st0" d="M25.3,68.4l0.9-2.5l5.7,2v0.2c-0.5-0.2-0.8,0.2-1,1L29,74.6c-0.2,0.7-0.1,1,0.4,1.2v0.1l-2.8-1v-0.2
			c0.5,0.2,0.9,0.1,1.2-0.7l2.3-6.7l-0.4-0.1c-1.2-0.4-3.1-1.1-4.1,1.2H25.3z"/>
		<path class="st0" d="M18.9,64.6l1.4-2.2l5.1,3.2l-0.1,0.1c-0.4-0.3-0.8,0-1.2,0.7l-3.1,5c-0.4,0.6-0.3,1,0.1,1.2L21,72.7l-2.4-1.6
			l0.1-0.1c0.4,0.3,0.9,0.3,1.3-0.4l3.8-6l-0.4-0.2c-1.1-0.7-2.8-1.8-4.3,0.2H18.9z"/>
		<path class="st0" d="M15.9,58l1.6,2l-0.1,0.1c-0.3-0.4-0.9-0.4-1.5,0.2l-4.4,3.5c-0.6,0.5-0.8,1-0.5,1.4l-0.1,0.1l-1.6-2
			c-1.5-1.9-2.4-4.2,0.4-6.4C12.5,54.7,14.4,56.1,15.9,58z M9.4,63.2l0.3,0.4l6.4-5l-0.3-0.4c-0.8-1-2.1-2.6-5.2-0.1
			S8.6,62.1,9.4,63.2z"/>
		<path class="st0" d="M11.2,50c1,2.4-0.2,4.3-2.4,5.2s-4.5,0.5-5.6-1.9s0.3-4.4,2.6-5.3C8.1,47.1,10.1,47.6,11.2,50z M3.3,53.3
			c0.5,1.3,1.8,2,4.9,0.7s3.4-2.6,2.8-3.9s-1.7-2-4.8-0.7C3.1,50.7,2.8,52,3.3,53.3z"/>
		<path class="st0" d="M0,34.6h0.2c0,0.9,0.4,1.2,3,2l5.5,1.7v0.2l-5.2,2.3l5.4,1.5v0.2l-7.2,3.2c-0.8,0.4-0.9,0.8-0.9,1.2H0.7
			l-0.2-3.2h0.2c0,0.4,0.3,0.7,0.6,0.8c0.1,0,0.3,0,0.4-0.1L7.2,42l-4-1.1l-1.8,0.7c-0.8,0.4-0.9,0.8-0.9,1.2l0,0l-0.2-3.2h0.2
			c0.1,1.1,1,0.7,1.1,0.7L7.1,38l-3.9-1.2c-1.2-0.3-3-0.8-2.9,0.9H0.2L0,34.6z"/>
		<path class="st0" d="M3.2,23.2L3.2,23.2c-0.4,1.7,1.3,2.1,2.3,2.4l5.2,1.5l-0.1,0.4l-7.8,3l3.4,1c1,0.3,2.7,0.8,3.2-0.7h0.1
			l-1,3.3H8.4c0.5-1.7-1.2-2.2-2.2-2.5l-3.6-1L2,31c-1.2,0.5-1.2,0.8-1.3,1.1H0.5L1.2,30l7.9-3.1l-3.6-1.1c-1.1-0.3-2.7-0.8-3.2,0.7
			H2.2L3.2,23.2z"/>
		<path class="st0" d="M11,21.1l-0.7-0.5l2.2-3.1l0.7,0.5L11,21.1z"/>
	</g>
</g>
</svg>
