<svg xmlns="http://www.w3.org/2000/svg" viewBox="0 0 77.57 77.01"><defs><style>.cls-1{fill:#231815;}</style></defs><g id="レイヤー_2" data-name="レイヤー 2"><g id="レイヤー_1-2" data-name="レイヤー 1"><path class="cls-1" d="M21.1,14.29a5,5,0,0,1-2.7,1.15L17,13.58l.12-.08c1,1.1,2.21,1.88,3.85.67,1.48-1.08.47-2.86-1.25-2.83l-2.37.14c-1.36.07-2.89-.17-3-1.85a2.59,2.59,0,0,1,1.26-2.09,6.06,6.06,0,0,1,2.55-1.17L19.41,8l-.14.1a2.33,2.33,0,0,0-3.51-.43c-1,.77-.86,2.7,1.3,2.57l2.37-.11c1.92-.1,2.92.81,3,2C22.43,12.1,22.6,13.19,21.1,14.29Z"/><path class="cls-1" d="M29.2,7.17l.86,1.64a4.61,4.61,0,0,1-2.37,1.82,4,4,0,0,1-5.53-2.37A4,4,0,0,1,24.3,2.65a4.36,4.36,0,0,1,2.95-.46L27.84,4,27.7,4a2.54,2.54,0,0,0-3.34-1.23c-1.15.49-2.2,1.54-.79,4.87s2.94,3.3,4.05,2.82a2.55,2.55,0,0,0,1.44-3.25Z"/><path class="cls-1" d="M37.89,8.16,37,8.3c-1.52.24-1.34.2-2.42-2.27a1.76,1.76,0,0,0-2-1L32,5.16l.41,2.6c.13.82.43,1,.92,1l0,.15-2.66.42,0-.16c.51-.08.7-.35.54-1.35l-.92-5.9c-.11-.73-.35-.87-.87-.79l0-.15L31.65.59c2.36-.37,3.71-.29,4,1.69.26,1.61-.6,2.23-1.86,2.51.78-.08,1.62-.13,2.64,2.37A1.33,1.33,0,0,0,37.87,8ZM31.67.74,31.3.8,32,5,32.33,5c1.34-.21,2.36-.36,2-2.47S32.94.54,31.67.74Z"/><path class="cls-1" d="M41.85,8.64C39.23,8.37,38.17,6.37,38.41,4S40.1-.24,42.72,0s3.68,2.4,3.44,4.76S44.48,8.91,41.85,8.64ZM42.71.18c-1.42-.14-2.6.69-2.93,4s.67,4.2,2.09,4.34,2.58-.55,2.91-3.84S44.12.32,42.71.18Z"/><path class="cls-1" d="M53,8.83,52,11.27,46.43,9.19l.06-.14c.48.18.77-.2,1.06-1l2-5.49c.25-.69.13-1-.36-1.21l.06-.15,2.67,1-.05.14c-.49-.18-.9-.12-1.21.69L48.24,9.7l.41.15c1.2.46,3.11,1.15,4.15-1.07Z"/><path class="cls-1" d="M59.28,12.8,57.85,15l-5-3.3.09-.13c.43.29.8,0,1.25-.69L57.41,6c.41-.61.36-1-.07-1.26l.08-.13,2.39,1.58-.09.13c-.43-.29-.85-.32-1.33.4L54.5,12.57l.36.24c1.06.72,2.77,1.83,4.29-.1Z"/><path class="cls-1" d="M62.12,19.39l-1.55-2.05.12-.1c.31.41.86.38,1.51-.11l4.47-3.38c.59-.45.83-1,.51-1.41l.12-.09,1.56,2.05c1.44,1.91,2.29,4.24-.52,6.36S63.56,21.3,62.12,19.39Zm6.62-5L68.42,14l-6.49,4.9.32.42c.78,1,2,2.61,5.23.21S69.53,15.45,68.74,14.4Z"/><path class="cls-1" d="M66.72,27.47c-1-2.46.33-4.32,2.55-5.2s4.55-.43,5.52,2-.45,4.37-2.66,5.24S67.69,29.92,66.72,27.47Zm7.92-3.12c-.52-1.33-1.8-2-4.86-.79s-3.43,2.52-2.91,3.85,1.68,2,4.75.83S75.16,25.67,74.64,24.35Z"/><path class="cls-1" d="M77.57,43.09h-.16c0-.88-.34-1.23-3-2.11L69,39.23v-.17l5.26-2.19-5.41-1.61v-.18L76.05,32c.85-.37.91-.78.89-1.19h.16L77.22,34h-.16c0-1.06-1-.72-1.06-.69L70.47,35.6l4,1.17,1.77-.69c.85-.37.9-.78.89-1.19h.15l.13,3.22h-.16c0-1.07-1-.71-1.06-.68l-5.57,2.18,3.9,1.21c1.16.3,2.87.9,2.8-.78h.16Z"/><path class="cls-1" d="M74.16,54.53l-.14,0c.53-1.66-1.12-2.15-2.19-2.49l-5.2-1.66.12-.36,7.81-2.86L71.16,46c-1-.32-2.71-.86-3.19.63l-.15,0,1.06-3.31.14,0c-.52,1.66,1.16,2.19,2.18,2.52L74.78,47l.76-.27c1.14-.44,1.18-.8,1.3-1.09l.14.05-.68,2.11-8,2.91,3.53,1.12c1.06.34,2.71.88,3.19-.63l.13,0Z"/><path class="cls-1" d="M66.28,56.39l.66.49-2.25,3L64,59.43Z"/><path class="cls-1" d="M57.05,62.28a5.08,5.08,0,0,1,2.67-1.2l1.4,1.83L61,63c-1-1.08-2.25-1.83-3.87-.59-1.45,1.11-.4,2.86,1.31,2.8L60.82,65c1.36-.1,2.89.11,3,1.79a2.62,2.62,0,0,1-1.22,2.12,6.13,6.13,0,0,1-2.53,1.22l-1.22-1.6.13-.1a2.33,2.33,0,0,0,3.52.35c1-.79.8-2.71-1.36-2.54l-2.36.17c-1.92.14-2.94-.76-3-1.92C55.76,64.51,55.57,63.41,57.05,62.28Z"/><path class="cls-1" d="M49.1,69.57,48.21,68a4.59,4.59,0,0,1,2.33-1.87A4.33,4.33,0,0,1,54.09,74a4.26,4.26,0,0,1-2.94.52l-.63-1.76.14-.06A2.54,2.54,0,0,0,54,73.84c1.14-.51,2.17-1.58.69-4.88s-3-3.23-4.11-2.73a2.55,2.55,0,0,0-1.36,3.28Z"/><path class="cls-1" d="M40.38,68.76l.9-.16c1.51-.27,1.34-.23,2.46,2.22a1.74,1.74,0,0,0,2,.91l.56-.09-.46-2.59c-.14-.82-.45-1-1-.94l0-.16,2.64-.46,0,.15c-.51.09-.69.37-.51,1.36l1,5.88c.13.73.37.86.89.77l0,.15-2.26.4c-2.35.42-3.7.36-4.05-1.61-.28-1.61.55-2.24,1.81-2.55-.78.1-1.61.16-2.68-2.31a1.33,1.33,0,0,0-1.45-.82Zm6.37,7.29.37-.07-.74-4.19-.37.06c-1.33.24-2.35.41-2,2.51S45.49,76.27,46.75,76.05Z"/><path class="cls-1" d="M36.39,68.35c2.63.22,3.73,2.2,3.54,4.58S38.32,77.21,35.68,77,32,74.66,32.15,72.3,33.76,68.14,36.39,68.35Zm-.69,8.49c1.42.11,2.59-.74,2.85-4s-.75-4.19-2.17-4.31-2.57.61-2.84,3.9S34.28,76.72,35.7,76.84Z"/><path class="cls-1" d="M25.31,68.4l.86-2.46,5.66,2,0,.15c-.49-.17-.78.21-1.05,1l-1.92,5.53c-.24.7-.1,1,.39,1.21l-.05.14L26.45,75l.05-.15c.49.17.9.1,1.19-.72L30,67.43l-.41-.14c-1.21-.43-3.14-1.09-4.14,1.16Z"/><path class="cls-1" d="M18.89,64.55l1.4-2.2,5.06,3.2-.08.13c-.44-.27-.81,0-1.24.73l-3.13,5c-.39.62-.34,1,.1,1.25l-.08.14L18.5,71.22l.09-.13c.43.27.86.3,1.32-.43l3.77-6-.36-.23c-1.08-.69-2.81-1.77-4.29.19Z"/><path class="cls-1" d="M15.92,58l1.6,2-.13.1c-.32-.41-.86-.36-1.5.15l-4.4,3.47c-.59.46-.82,1-.49,1.42l-.12.09-1.6-2c-1.48-1.88-2.37-4.2.39-6.38S14.44,56.14,15.92,58ZM9.4,63.15l.33.41,6.39-5-.32-.42c-.81-1-2.11-2.57-5.24-.11S8.59,62.11,9.4,63.15Z"/><path class="cls-1" d="M11.16,50.05c1,2.43-.23,4.32-2.44,5.24s-4.54.53-5.55-1.9.35-4.38,2.55-5.3S10.15,47.61,11.16,50.05ZM3.31,53.32c.55,1.32,1.85,2,4.88.7s3.38-2.59,2.83-3.91-1.72-2-4.77-.73S2.76,52,3.31,53.32Z"/><path class="cls-1" d="M0,34.63H.16c0,.88.36,1.22,3,2.05l5.53,1.65v.17l-5.22,2.3,5.44,1.49v.18L1.74,45.72c-.84.39-.89.8-.86,1.21H.72L.53,43.7H.69a.71.71,0,0,0,1.07.67L7.25,42l-4-1.08-1.75.72c-.84.39-.89.8-.86,1.21H.48L.29,39.61H.45c.06,1.06,1,.68,1.07.65L7.05,38,3.12,36.83C2,36.55.24,36,.33,37.67H.18Z"/><path class="cls-1" d="M3.16,23.17l.14,0c-.5,1.67,1.17,2.13,2.24,2.44l5.23,1.55-.1.37-7.76,3,3.43,1c1,.3,2.73.81,3.18-.7l.15,0-1,3.33-.15-.05c.5-1.66-1.2-2.17-2.23-2.47L2.7,30.69,2,31C.81,31.45.78,31.8.67,32.1l-.14,0,.63-2.13,7.89-3.07L5.5,25.8c-1.07-.31-2.73-.81-3.18.7l-.14,0Z"/><path class="cls-1" d="M11,21.11l-.66-.47,2.18-3.09.67.47Z"/></g></g></svg>